<svg width="120" height="120" viewBox="0 0 120 120" fill="none" xmlns="http://www.w3.org/2000/svg">
<rect width="120" height="120" rx="60" fill="#A36EBA"/>
<mask id="mask0_821_9301" style="mask-type:alpha" maskUnits="userSpaceOnUse" x="0" y="0" width="120" height="120">
<rect width="120" height="120" rx="60" fill="#A36EBA"/>
</mask>
<g mask="url(#mask0_821_9301)">
<path d="M42.3301 67.431C40.9325 64.1713 40.2337 61.7254 33.9442 64.1713C27.6548 66.6172 21.016 73.4859 18.5701 74.1847C16.1242 74.8835 16.1242 78.7271 16.1242 78.7271C16.1242 78.7271 16.0093 78.842 13.7933 79.311C11.5818 79.7753 10.1842 81.5224 9.01643 82.8051C7.85325 84.0878 4.58899 85.0165 3.19135 86.5337C1.7937 88.0463 -7.5209 94.6851 -0.767123 108.193C2.10174 113.93 3.89018 111.452 11.3428 107.259C18.7954 103.066 30.7903 91.6554 36.266 87.9268C41.7463 84.2028 43.76 70.778 42.3301 67.431Z" fill="#273252"/>
<path d="M42.3291 67.4298C40.9314 64.1702 40.2326 61.7243 33.9432 64.1701C33.9432 64.1701 33.0053 69.1355 30.3341 76.1697C27.6676 83.2039 23.5436 86.3532 23.5436 86.3532L18.4495 93.6265C18.4495 93.6265 18.8863 90.4037 17.7231 91.6864C16.5599 92.9691 12.0865 94.5369 10.6889 96.0494C9.29121 97.562 2.92822 112.053 2.92822 112.053C2.92822 112.053 3.8937 111.447 11.3463 107.254C18.7989 103.061 30.7939 91.6496 36.2695 87.921C41.7452 84.2016 43.7589 70.7768 42.3291 67.4298Z" fill="#1D2538"/>
<path d="M5.9952 110.288C5.9952 110.288 7.8572 110.752 7.8572 100.275C7.8572 91.3094 3.2183 90.776 1.80226 87.2313C-2.39069 76.749 -1.67348 81.9948 -4.95152 74.887C-9.14447 65.8023 -11.0065 59.9818 -18.6935 63.2414C-28.1369 67.2459 -29.6403 69.2964 -28.707 72.556C-27.7737 75.8157 -27.0748 73.9537 -26.376 76.2846C-25.6772 78.6156 -21.2498 87.6957 -19.3878 92.3576C-17.5258 97.0149 -15.6592 99.1114 -15.6592 99.1114C-15.6592 99.1114 -13.0984 104.238 -11.4662 106.798C-9.8433 109.355 -2.39069 117.042 5.9952 110.288Z" fill="#C94039"/>
<path d="M5.99441 110.288C5.99441 110.288 7.8564 110.752 7.8564 100.275C7.8564 100.275 2.20604 101.879 -1.67427 100.665C-5.55459 99.4516 -7.60969 93.2219 -10.8877 86.1141C-15.0807 77.0294 -19.3748 83.2039 -19.3748 83.2039C-19.3748 83.2039 -29.6365 69.2964 -28.7078 72.556C-27.7745 75.8157 -27.0756 73.9537 -26.3768 76.2846C-25.678 78.6156 -21.2506 87.6957 -19.3886 92.3576C-17.5266 97.0149 -15.66 99.1114 -15.66 99.1114C-15.66 99.1114 -13.0992 104.238 -11.467 106.798C-9.8441 109.355 -2.39149 117.042 5.99441 110.288Z" fill="#992C29"/>
<path opacity="0.9" d="M-20.3272 10.5448C-29.8993 13.7355 -41.2874 10.0207 -51.1905 -0.493858C-59.6361 -9.45905 -55.2639 -30.8743 -55.2639 -30.8743C-55.2639 -30.8743 -53.7145 -24.801 -50.0641 -20.7598C-46.4136 -16.7185 -43.9309 -25.9366 -48.9606 -35.4535C-53.9903 -44.9704 -49.425 -51.6598 -49.425 -51.6598L-43.6965 -42.5613C-43.6965 -42.5613 -38.3771 -64.3628 -29.9636 -73.0061C-21.5502 -81.6495 -30.497 -70.4729 -24.773 -60.8687C-19.0491 -51.2644 -16.7871 -61.7606 -14.8332 -57.3607C-7.74836 -47.6232 -9.84484 -32.9478 -9.84484 -32.9478L0.637539 -39.7614C0.632942 -39.766 4.82589 2.15892 -20.3272 10.5448Z" fill="#F7BC4B"/>
<path opacity="0.4" d="M-11.9394 14.2094C-19.2771 17.8782 -54.9125 23.6435 -67.4868 -14.0885C-80.061 -51.8204 -43.3268 -93.3683 1.68309 -90.6006C35.7462 -88.5041 37.3186 -115.23 37.3186 -115.23C37.3186 -115.23 47.8009 -86.4077 33.1256 -75.4012C3.66923 -53.31 8.49664 -42.3863 7.4484 -22.4698C6.40016 -2.55785 -4.60174 10.5451 -11.9394 14.2094Z" fill="#FEED7F"/>
<path d="M47.5666 59.5731C42.7989 51.0998 62.1775 43.5093 72.8024 41.914C79.3815 40.9255 87.3077 43.638 89.5834 46.3276C90.3604 47.2517 94.0798 52.6952 94.9626 55.7847C95.928 59.1593 95.4729 74.4093 89.3719 74.299C81.0182 74.1518 52.3388 68.0417 47.5666 59.5731Z" fill="#992C29"/>
<path d="M55.5832 61.3429C52.935 55.6006 60.1072 46.8377 68.8287 44.5619C78.9846 41.9138 86.6395 46.001 87.3752 49.4169C88.1108 52.8375 81.311 58.4833 74.6998 61.3751C68.0885 64.267 56.7648 63.8992 55.5832 61.3429Z" fill="#F3E7D9"/>
<path d="M72.4303 57.5317C78.4806 52.7089 80.2093 53.1778 80.0576 49.2653C79.8139 42.9437 64.8535 48.5389 61.764 49.4216C58.6745 50.3044 53.0977 59.5454 56.4631 64.8785C59.8331 70.2071 66.3799 62.3545 72.4303 57.5317Z" fill="#273252"/>
<path d="M74.411 58.6994C74.411 58.6994 61.4782 56.8466 48.7614 60.0695C42.495 61.6556 33.9252 73.5494 33.9252 88.5604C33.9252 103.571 38.3388 145.524 38.3388 145.524L92.2081 144.641C92.2081 144.636 90.3093 61.3476 74.411 58.6994Z" fill="#F7BC4B"/>
<path d="M66.47 124.853L50.466 98.1185L48.7649 60.0693C42.4985 61.6555 33.9287 73.5493 33.9287 88.5602C33.9287 103.571 38.3423 145.524 38.3423 145.524L92.2116 144.641C92.2116 144.641 71.9273 134.678 63.7437 130.315C57.9002 127.198 58.2864 121.584 58.2864 121.584L66.47 124.853Z" fill="#CE9436"/>
<path d="M67.8868 61.026C67.8868 65.5591 63.5743 74.1289 59.3262 74.1289C55.0826 74.1289 50.8529 68.2717 50.8529 63.7339C50.8529 59.2008 55.1378 58.3456 59.3813 58.3456C63.634 58.3502 67.8868 57.4767 67.8868 61.026Z" fill="#F5894E"/>
<path d="M50.596 59.803C48.3248 57.0077 33.7552 61.1271 31.5484 65.9821C30.8588 67.4993 31.9944 73.7014 31.7323 77.3794C31.1485 85.471 29.9117 93.2593 30.822 96.2936C32.1461 100.707 33.9483 121.833 32.1829 127.129C30.4174 132.43 33.9483 144.352 35.7138 147C37.4792 149.648 51.6121 146.558 51.6121 146.558L49.3731 126.849C49.3731 126.849 43.2997 111.305 43.2583 99.5671C43.2216 87.8342 51.465 60.8742 50.596 59.803Z" fill="#C94039"/>
<path d="M50.5957 59.8024C48.3245 57.0071 39.2122 65.2505 37.0054 70.1055C34.7985 74.9605 41.7362 119.943 41.7362 119.943C41.7362 119.943 45.0096 126.126 45.5568 126.674C46.1039 127.221 42.6465 126.857 42.6465 126.857L51.6117 146.567L49.3727 126.857C49.3727 126.857 43.2994 111.313 43.258 99.5757C43.2212 87.8336 51.4646 60.8736 50.5957 59.8024Z" fill="#992C29"/>
<path d="M52.8661 59.3657C47.395 65.577 55.6108 88.6566 59.1555 87.8934C62.7002 87.1256 71.9091 59.7657 65.6518 57.7382" stroke="#992C29" stroke-miterlimit="10"/>
<path d="M60.1379 92.4171C60.8278 92.2561 61.1368 91.0533 60.8282 89.7304C60.5195 88.4076 59.7101 87.4656 59.0202 87.6266C58.3304 87.7875 58.0213 88.9904 58.33 90.3133C58.6386 91.6361 59.4481 92.578 60.1379 92.4171Z" fill="#29ABE2"/>
<path d="M51.4649 57.83C47.6858 57.8852 46.4628 59.0484 44.4813 60.6759C42.4997 62.308 41.6722 65.2826 40.3481 72.7858C39.024 80.2936 41.4009 94.2149 43.6077 94.2149C45.8146 94.2149 45.8697 83.8613 47.6352 77.2362C49.4006 70.6158 55.2395 57.7749 51.4649 57.83Z" fill="#F3E7D9"/>
<path d="M72.2532 58.7543C69.4579 62.0737 69.0625 84.5833 70.3866 96.5047C71.7107 108.426 79.6598 124.324 80.5426 131.827C81.4253 139.335 81.8666 146.397 83.6321 147.726C85.3975 149.054 105.677 147.96 105.677 147.96C105.677 147.96 113.015 137.478 102.008 120.711C95.2087 110.348 97.6684 64.3127 91.9306 62.1059C86.1883 59.8945 75.0485 55.4349 72.2532 58.7543Z" fill="#992C29"/>
<path d="M73.7432 76.6524C70.9479 79.9719 69.0629 84.5832 70.387 96.5046C71.7111 108.426 79.6603 124.324 80.543 131.827C81.4257 139.335 81.8671 146.397 83.6325 147.726C85.398 149.054 92.9012 146.981 87.8071 127.579C87.1405 125.041 81.7429 99.3275 83.2004 89.383C84.0923 83.3005 76.5385 73.333 73.7432 76.6524Z" fill="#C94039"/>
<path d="M69.9833 92.8175C68.0018 91.1854 67.7122 89.3923 67.7122 83.2086C67.7122 77.025 68.3834 67.3058 69.4592 60.6761C70.5075 54.212 82.9668 54.7959 80.6404 59.4532C77.5739 65.5863 75.9555 68.4276 74.7004 78.3169C73.3028 89.3234 71.9649 94.4496 69.9833 92.8175Z" fill="#F3E7D9"/>
<path d="M77.0179 95.5721C77.0179 95.5721 77.9283 109.576 87.5693 110.85C87.5693 110.85 81.9879 105.029 77.0179 95.5721Z" fill="#C94039"/>
<path d="M98.9257 99.5723C96.7143 94.915 96.5028 93.7978 90.0755 86.1797C80.6413 74.9985 77.5012 68.47 83.0872 61.0266C86.0434 57.0865 91.4731 55.7854 98.1119 61.376C100.783 63.6242 105.555 72.0836 108.245 76.0513C112.185 81.8626 116.994 88.7037 118.258 91.6553C119.523 94.6069 118.957 95.3839 116.052 95.6046C111.762 95.9356 106.576 96.046 105.086 98.1332C102.976 101.089 100.847 103.623 98.9257 99.5723Z" fill="#273252"/>
<path d="M118.257 91.6546C116.993 88.703 112.179 81.8619 108.244 76.0506C105.554 72.083 100.782 63.6281 98.1105 61.3753C91.4717 55.7847 86.042 57.0858 83.0858 61.0259L90.9614 63.3155C90.9614 63.3155 94.1199 65.9728 97.6646 69.683C99.0898 70.6531 101.03 72.0462 103.09 73.7427C107.214 77.1356 107.453 79.8068 107.453 79.8068L105.03 78.8367C106.579 80.7723 104.745 78.3264 105.756 80.2896C109.825 88.1881 106.023 89.9581 104.542 92.1742C102.602 95.0844 102.975 101.089 105.085 98.1326C106.575 96.0453 111.761 95.9304 116.05 95.6039C118.956 95.3832 119.521 94.6063 118.257 91.6546Z" fill="#1D2538"/>
<path d="M101.022 101.089C101.486 103.65 102.258 103.7 103.583 104.583C104.907 105.466 107.688 112.123 109.454 118.307C111.219 124.49 112.984 126.256 112.543 128.021C112.102 129.787 112.543 131.552 113.867 131.993C115.191 132.435 120.934 130.228 123.582 131.993C126.23 133.759 127.554 138.177 129.765 138.177C131.977 138.177 131.531 135.088 130.648 133.763C129.765 132.439 129.324 126.697 128.441 120.518C127.559 114.334 121.053 98.1831 119.885 96.3211C117.941 93.2086 115.463 93.2362 109.987 93.6408C106.842 93.866 100.557 98.5234 101.022 101.089Z" fill="#C94039"/>
<path d="M101.022 101.089C101.486 103.65 102.258 103.7 103.583 104.583C104.907 105.466 107.688 112.123 109.454 118.307C111.219 124.49 112.984 126.256 112.543 128.021C112.102 129.787 112.543 131.552 113.867 131.993C115.191 132.435 120.934 130.228 123.582 131.993C126.23 133.759 127.554 138.177 129.765 138.177C131.977 138.177 131.531 135.088 130.648 133.763C129.765 132.439 129.324 126.697 128.441 120.518C127.559 114.334 121.053 98.1831 119.885 96.3211C117.941 93.2086 115.463 93.2362 109.987 93.6408C106.842 93.866 100.557 98.5234 101.022 101.089Z" fill="#992C29"/>
<path d="M101.022 101.09C101.486 103.651 102.258 103.701 103.582 104.584C104.907 105.467 107.688 112.124 109.453 118.308C111.219 124.491 112.984 126.257 112.543 128.022C112.102 129.788 112.543 131.553 113.867 131.994C115.191 132.436 115.03 123.944 113.665 118.308C112.299 112.671 112.879 109.609 108.419 102.607C107.5 101.159 105.274 95.5129 103.297 97.2094C101.642 98.6301 100.81 99.922 101.022 101.09Z" fill="#C94039"/>
<path d="M50.8254 44.5945L52.8254 63.449C52.8254 63.449 54.3564 67.104 59.9699 66.6948C65.5835 66.2902 66.6042 61.826 66.6042 61.826L64.5629 40.7188L50.8254 44.5945Z" fill="#F5894E"/>
<path d="M50.8254 44.5945C50.8254 44.5945 56.6781 56.9434 59.3033 59.2146C61.9285 61.4858 67.3766 61.826 67.3766 61.826L65.2341 40.7188L50.8254 44.5945Z" fill="#CC6D3D"/>
<path d="M76.1437 38.3918C70.7324 51.1315 66.02 53.8809 66.02 53.8809C46.0391 55.9452 35.5935 42.0146 36.5544 29.4036C37.0647 16.3374 39.7129 11.5468 54.002 11.156C73.9047 10.6135 80.962 27.0451 76.1437 38.3918Z" fill="#1D2538"/>
<path d="M76.1437 38.392C70.7324 51.1317 66.02 53.8811 66.02 53.8811C46.0391 55.9454 35.5935 42.0148 36.5544 29.4038C37.0647 16.3376 37.8739 9.97922 54.448 8.60456C77.4632 6.69659 80.962 27.0453 76.1437 38.392Z" fill="#1D2538"/>
<path d="M77.4856 38.5246C72.8743 49.3886 57.776 41.4947 57.776 41.4947C54.7141 39.6281 53.5279 28.6859 52.8429 21.4494C52.2498 15.2106 48.6729 9.33491 65.8677 11.059C81.1499 12.5946 81.5912 28.856 77.4856 38.5246Z" fill="#3E4C6F"/>
<path d="M54.0987 12.6872C54.0987 12.6872 43.391 18.3146 41.5888 20.3191C39.7866 22.3237 38.3935 43.8309 41.8233 50.6215C45.2025 57.3201 67.1511 56.3316 72.0797 51.4306C76.1163 47.417 75.1186 43.4217 75.9646 36.8013C76.8565 29.8268 72.0475 25.3075 71.5188 22.6041C70.6177 17.979 54.0987 12.6872 54.0987 12.6872Z" fill="#CC6D3D"/>
<path d="M78.5399 34.1534C77.671 38.0889 75.6619 41.1232 74.0435 40.9393C72.4206 40.7554 71.8046 37.3992 72.6689 33.427C73.5378 29.4455 75.5699 26.3836 77.1974 26.5996C78.8158 26.8157 79.4134 30.2041 78.5399 34.1534Z" fill="#CC6D3D"/>
<path d="M43.3814 31.6705C39.9057 33.9417 38.7793 48.8883 44.8296 52.0928C50.88 55.2972 56.2867 54.2996 60.475 50.5664C64.1393 47.3021 62.052 39.4541 56.9671 35.8819C50.7421 31.5096 46.8572 29.3993 43.3814 31.6705Z" fill="#F5894E"/>
<path d="M35.4704 34.0757C36.0819 37.4319 37.8795 40.0295 39.4979 39.8824C41.1208 39.7353 41.9529 36.8848 41.3461 33.501C40.7392 30.108 38.9186 27.4874 37.2911 27.6576C35.6681 27.8323 34.8543 30.7103 35.4704 34.0757Z" fill="#F5894E"/>
<path d="M72.3243 18.2782C72.3243 18.2782 71.2668 28.5261 72.476 31.5605L75.1794 36.0523L76.0897 21.5103L72.3243 18.2782Z" fill="#3E4C6F"/>
<path d="M39.1713 36.0245C39.1713 36.0245 38.9782 25.818 39.5713 22.7561L40.8356 18.1953L40.854 32.6959L39.1713 36.0245Z" fill="#1D2538"/>
<path d="M72.0933 16.3424C72.0933 16.3424 68.4015 20.4434 56.0571 20.5905C49.9286 20.6641 44.7242 22.9353 41.745 22.3468C34.4303 20.894 46.7011 7.0646 59.28 6.49451C72.006 5.91982 72.0933 16.3424 72.0933 16.3424Z" fill="#1D2538"/>
<path d="M59.3525 6.33763C49.2655 7.21116 38.7693 16.5625 44.6588 17.7257C46.3323 18.0567 48.9943 18.4981 52.2263 18.8475C57.9043 17.9556 63.8075 15.0178 63.8075 15.0178C63.4351 17.7625 60.2766 18.8705 56.8514 19.2475C59.7525 19.4314 62.8926 19.5096 66.0695 19.3716C71.2923 19.1464 71.8394 19.4176 72.198 17.6797C72.9152 14.1534 70.2532 5.39054 59.3525 6.33763Z" fill="#3E4C6F"/>
<path d="M64.5162 35.7944C64.6036 37.2702 63.9461 37.9598 63.2059 38.0058C62.4657 38.0518 61.9278 37.4311 61.8404 35.9553C61.7531 34.4795 62.2772 33.2427 63.0174 33.2014C63.7576 33.16 64.4243 34.314 64.5162 35.7944Z" fill="#34283A"/>
<path d="M52.1483 36.6771C52.2356 38.1529 51.5782 38.8425 50.838 38.8885C50.0978 38.9344 49.5599 38.3138 49.4725 36.838C49.3852 35.3622 49.9093 34.1254 50.6495 34.0841C51.3897 34.0381 52.0609 35.1967 52.1483 36.6771Z" fill="#34283A"/>
<path d="M66.4932 30.9117C66.4932 30.9117 65.045 28.3049 62.691 29.0129" stroke="#34283A" stroke-width="2" stroke-miterlimit="10" stroke-linecap="round" stroke-linejoin="round"/>
<path d="M49.7172 29.9377C49.7172 29.9377 46.9265 29.7354 46.2737 31.9514" stroke="#34283A" stroke-width="2" stroke-miterlimit="10" stroke-linecap="round" stroke-linejoin="round"/>
</g>
</svg>
